<?xml version="1.0" encoding="UTF-8" standalone="no"?>
<!-- Created with Inkscape (http://www.inkscape.org/) -->

<svg
   width="70mm"
   height="25mm"
   viewBox="0 0 70 25"
   version="1.1"
   id="svg1"
   inkscape:version="1.3.2 (1:1.3.2+202311252150+091e20ef0f)"
   sodipodi:docname="logo.svg"
   xmlns:inkscape="http://www.inkscape.org/namespaces/inkscape"
   xmlns:sodipodi="http://sodipodi.sourceforge.net/DTD/sodipodi-0.dtd"
   xmlns="http://www.w3.org/2000/svg"
   xmlns:svg="http://www.w3.org/2000/svg">
  <sodipodi:namedview
     id="namedview1"
     pagecolor="#ffffff"
     bordercolor="#666666"
     borderopacity="1.0"
     inkscape:showpageshadow="2"
     inkscape:pageopacity="0.0"
     inkscape:pagecheckerboard="0"
     inkscape:deskcolor="#d1d1d1"
     inkscape:document-units="mm"
     inkscape:zoom="2.6266075"
     inkscape:cx="107.17247"
     inkscape:cy="52.919975"
     inkscape:window-width="1600"
     inkscape:window-height="831"
     inkscape:window-x="0"
     inkscape:window-y="0"
     inkscape:window-maximized="1"
     inkscape:current-layer="g1" />
  <defs
     id="defs1">
    <clipPath
       clipPathUnits="userSpaceOnUse"
       id="clipPath522">
      <path
         d="M 0,825 H 649 V 0 H 0 Z"
         transform="translate(-185.7129,-161.6133)"
         id="path522" />
    </clipPath>
    <clipPath
       clipPathUnits="userSpaceOnUse"
       id="clipPath524">
      <path
         d="M 0,825 H 649 V 0 H 0 Z"
         transform="translate(-199.1328,-160.9951)"
         id="path524" />
    </clipPath>
    <clipPath
       clipPathUnits="userSpaceOnUse"
       id="clipPath526">
      <path
         d="M 0,825 H 649 V 0 H 0 Z"
         transform="translate(-201.92581,-165.58011)"
         id="path526" />
    </clipPath>
    <clipPath
       clipPathUnits="userSpaceOnUse"
       id="clipPath528">
      <path
         d="M 0,825 H 649 V 0 H 0 Z"
         transform="translate(-211.27731,-165.58011)"
         id="path528" />
    </clipPath>
    <clipPath
       clipPathUnits="userSpaceOnUse"
       id="clipPath530">
      <path
         d="M 0,825 H 649 V 0 H 0 Z"
         transform="translate(-219.0547,-165.58011)"
         id="path530" />
    </clipPath>
    <clipPath
       clipPathUnits="userSpaceOnUse"
       id="clipPath532">
      <path
         d="M 0,825 H 649 V 0 H 0 Z"
         transform="translate(-231.2578,-159.2598)"
         id="path532" />
    </clipPath>
    <clipPath
       clipPathUnits="userSpaceOnUse"
       id="clipPath534">
      <path
         d="M 0,825 H 649 V 0 H 0 Z"
         id="path534" />
    </clipPath>
    <clipPath
       clipPathUnits="userSpaceOnUse"
       id="clipPath536">
      <path
         d="M 0,825 H 649 V 0 H 0 Z"
         transform="translate(-240.6895,-158.84181)"
         id="path536" />
    </clipPath>
    <clipPath
       clipPathUnits="userSpaceOnUse"
       id="clipPath538">
      <path
         d="M 0,825 H 649 V 0 H 0 Z"
         transform="translate(-248.66601,-165.58011)"
         id="path538" />
    </clipPath>
    <clipPath
       clipPathUnits="userSpaceOnUse"
       id="clipPath540">
      <path
         d="M 0,825 H 649 V 0 H 0 Z"
         transform="translate(-185.66211,-147.5518)"
         id="path540" />
    </clipPath>
    <clipPath
       clipPathUnits="userSpaceOnUse"
       id="clipPath542">
      <path
         d="M 0,825 H 649 V 0 H 0 Z"
         transform="translate(-194.30271,-152.05761)"
         id="path542" />
    </clipPath>
    <clipPath
       clipPathUnits="userSpaceOnUse"
       id="clipPath544">
      <path
         d="M 0,825 H 649 V 0 H 0 Z"
         id="path544" />
    </clipPath>
    <clipPath
       clipPathUnits="userSpaceOnUse"
       id="clipPath546">
      <path
         d="M 0,825 H 649 V 0 H 0 Z"
         transform="translate(-206.3164,-152.05761)"
         id="path546" />
    </clipPath>
    <clipPath
       clipPathUnits="userSpaceOnUse"
       id="clipPath548">
      <path
         d="M 0,825 H 649 V 0 H 0 Z"
         transform="translate(-215.44341,-152.05761)"
         id="path548" />
    </clipPath>
    <clipPath
       clipPathUnits="userSpaceOnUse"
       id="clipPath550">
      <path
         d="M 0,825 H 649 V 0 H 0 Z"
         transform="translate(-226.48441,-148.22661)"
         id="path550" />
    </clipPath>
    <clipPath
       clipPathUnits="userSpaceOnUse"
       id="clipPath552">
      <path
         d="M 0,825 H 649 V 0 H 0 Z"
         transform="translate(-230.59771,-145.3203)"
         id="path552" />
    </clipPath>
    <clipPath
       clipPathUnits="userSpaceOnUse"
       id="clipPath554">
      <path
         d="M 0,825 H 649 V 0 H 0 Z"
         id="path554" />
    </clipPath>
    <clipPath
       clipPathUnits="userSpaceOnUse"
       id="clipPath556">
      <path
         d="M 0,825 H 649 V 0 H 0 Z"
         transform="translate(-243.9727,-150.45801)"
         id="path556" />
    </clipPath>
    <clipPath
       clipPathUnits="userSpaceOnUse"
       id="clipPath558">
      <path
         d="M 0,825 H 649 V 0 H 0 Z"
         transform="translate(-251.65821,-147.2812)"
         id="path558" />
    </clipPath>
    <clipPath
       clipPathUnits="userSpaceOnUse"
       id="clipPath560">
      <path
         d="M 0,825 H 649 V 0 H 0 Z"
         transform="translate(-185.9199,-133.95021)"
         id="path560" />
    </clipPath>
    <clipPath
       clipPathUnits="userSpaceOnUse"
       id="clipPath562">
      <path
         d="M 0,825 H 649 V 0 H 0 Z"
         transform="translate(-198.0781,-134.57031)"
         id="path562" />
    </clipPath>
    <clipPath
       clipPathUnits="userSpaceOnUse"
       id="clipPath564">
      <path
         d="M 0,825 H 649 V 0 H 0 Z"
         transform="translate(-216.20901,-133.53321)"
         id="path564" />
    </clipPath>
    <clipPath
       clipPathUnits="userSpaceOnUse"
       id="clipPath566">
      <path
         d="M 0,825 H 649 V 0 H 0 Z"
         transform="translate(-223.82421,-138.5361)"
         id="path566" />
    </clipPath>
    <clipPath
       clipPathUnits="userSpaceOnUse"
       id="clipPath568">
      <path
         d="M 0,825 H 649 V 0 H 0 Z"
         transform="translate(-239.2969,-131.4717)"
         id="path568" />
    </clipPath>
    <clipPath
       clipPathUnits="userSpaceOnUse"
       id="clipPath570">
      <path
         d="M 0,825 H 649 V 0 H 0 Z"
         transform="translate(-253.79691,-133.53321)"
         id="path570" />
    </clipPath>
    <clipPath
       clipPathUnits="userSpaceOnUse"
       id="clipPath586">
      <path
         d="m 104.104,169.258 c 0,0 -4.468,-24.851 17.753,-39.735 v 0 c 22.278,14.884 17.93,39.735 17.93,39.735 v 0 c -8.965,2.426 -13.447,3.638 -17.908,3.638 v 0 c -4.46,0 -8.898,-1.212 -17.775,-3.638"
         transform="matrix(1.3333333,0,0,-1.3333333,0,1100)"
         id="path586" />
    </clipPath>
    <mask
       maskUnits="userSpaceOnUse"
       x="0"
       y="0"
       width="1"
       height="1"
       id="mask570">
      <path
         id="path577"
         d="M -32768,32767 H 32767 V -32768 H -32768 Z"
         style="fill:url(#linearGradient577);stroke:none" />
    </mask>
    <linearGradient
       x1="0"
       y1="0"
       x2="1"
       y2="0"
       gradientUnits="userSpaceOnUse"
       gradientTransform="matrix(0,43.373497,43.373497,0,121.93299,129.52251)"
       spreadMethod="pad"
       id="linearGradient577">
      <stop
         style="stop-opacity:1;stop-color:#ffffff"
         offset="0"
         id="stop570" />
      <stop
         style="stop-opacity:1;stop-color:#ffffff"
         offset="0.00327869"
         id="stop571" />
      <stop
         style="stop-opacity:0;stop-color:#ffffff"
         offset="0.167213"
         id="stop572" />
      <stop
         style="stop-opacity:1;stop-color:#ffffff"
         offset="0.485246"
         id="stop573" />
      <stop
         style="stop-opacity:0;stop-color:#ffffff"
         offset="0.75082"
         id="stop574" />
      <stop
         style="stop-opacity:1;stop-color:#ffffff"
         offset="0.917582"
         id="stop575" />
      <stop
         style="stop-opacity:1;stop-color:#ffffff"
         offset="0.989011"
         id="stop576" />
      <stop
         style="stop-opacity:1;stop-color:#ffffff"
         offset="1"
         id="stop577" />
    </linearGradient>
    <linearGradient
       x1="0"
       y1="0"
       x2="1"
       y2="0"
       gradientUnits="userSpaceOnUse"
       gradientTransform="matrix(0,43.373497,43.373497,0,121.93299,129.52251)"
       spreadMethod="pad"
       id="linearGradient585">
      <stop
         style="stop-opacity:1;stop-color:#808285"
         offset="0"
         id="stop578" />
      <stop
         style="stop-opacity:1;stop-color:#808285"
         offset="0.00327869"
         id="stop579" />
      <stop
         style="stop-opacity:1;stop-color:#e6e7e8"
         offset="0.167213"
         id="stop580" />
      <stop
         style="stop-opacity:1;stop-color:#939598"
         offset="0.485246"
         id="stop581" />
      <stop
         style="stop-opacity:1;stop-color:#e6e7e8"
         offset="0.75082"
         id="stop582" />
      <stop
         style="stop-opacity:1;stop-color:#c7c8ca"
         offset="0.917582"
         id="stop583" />
      <stop
         style="stop-opacity:1;stop-color:#808285"
         offset="0.989011"
         id="stop584" />
      <stop
         style="stop-opacity:1;stop-color:#808285"
         offset="1"
         id="stop585" />
    </linearGradient>
    <clipPath
       clipPathUnits="userSpaceOnUse"
       id="clipPath588">
      <path
         d="M 0,825 H 649 V 0 H 0 Z"
         transform="translate(-121.8574,-129.52251)"
         id="path588" />
    </clipPath>
    <clipPath
       clipPathUnits="userSpaceOnUse"
       id="clipPath590">
      <path
         d="M 0,825 H 649 V 0 H 0 Z"
         transform="translate(-121.8574,-129.52251)"
         id="path590" />
    </clipPath>
    <clipPath
       clipPathUnits="userSpaceOnUse"
       id="clipPath592">
      <path
         d="M 0,825 H 649 V 0 H 0 Z"
         transform="translate(-105.95121,-167.5732)"
         id="path592" />
    </clipPath>
    <clipPath
       clipPathUnits="userSpaceOnUse"
       id="clipPath594">
      <path
         d="M 0,825 H 649 V 0 H 0 Z"
         transform="translate(-106.0293,-167.4961)"
         id="path594" />
    </clipPath>
    <clipPath
       clipPathUnits="userSpaceOnUse"
       id="clipPath596">
      <path
         d="M 0,825 H 649 V 0 H 0 Z"
         transform="translate(-121.8672,-131.63961)"
         id="path596" />
    </clipPath>
    <clipPath
       clipPathUnits="userSpaceOnUse"
       id="clipPath598">
      <path
         d="M 0,825 H 649 V 0 H 0 Z"
         transform="translate(-94.855502,-145.94631)"
         id="path598" />
    </clipPath>
    <clipPath
       clipPathUnits="userSpaceOnUse"
       id="clipPath600">
      <path
         d="M 0,825 H 649 V 0 H 0 Z"
         transform="translate(-84.7441,-137.86821)"
         id="path600" />
    </clipPath>
    <clipPath
       clipPathUnits="userSpaceOnUse"
       id="clipPath602">
      <path
         d="M 0,825 H 649 V 0 H 0 Z"
         transform="translate(-68.484401,-139.5342)"
         id="path602" />
    </clipPath>
    <clipPath
       clipPathUnits="userSpaceOnUse"
       id="clipPath604">
      <path
         d="M 0,825 H 649 V 0 H 0 Z"
         transform="translate(-149.0977,-145.94631)"
         id="path604" />
    </clipPath>
    <clipPath
       clipPathUnits="userSpaceOnUse"
       id="clipPath606">
      <path
         d="M 0,825 H 649 V 0 H 0 Z"
         transform="translate(-159.2109,-137.86821)"
         id="path606" />
    </clipPath>
    <clipPath
       clipPathUnits="userSpaceOnUse"
       id="clipPath608">
      <path
         d="M 0,825 H 649 V 0 H 0 Z"
         transform="translate(-174.2266,-150.51861)"
         id="path608" />
    </clipPath>
    <clipPath
       clipPathUnits="userSpaceOnUse"
       id="clipPath610">
      <path
         d="M 0,825 H 649 V 0 H 0 Z"
         transform="translate(-149.6836,-118.76271)"
         id="path610" />
    </clipPath>
    <clipPath
       clipPathUnits="userSpaceOnUse"
       id="clipPath612">
      <path
         d="M 0,825 H 649 V 0 H 0 Z"
         transform="translate(-96.4219,-120.4785)"
         id="path612" />
    </clipPath>
    <clipPath
       clipPathUnits="userSpaceOnUse"
       id="clipPath614">
      <path
         d="M 0,825 H 649 V 0 H 0 Z"
         transform="translate(-117.59961,-159.5752)"
         id="path614" />
    </clipPath>
    <clipPath
       clipPathUnits="userSpaceOnUse"
       id="clipPath616">
      <path
         d="M 0,825 H 649 V 0 H 0 Z"
         transform="translate(-127.70901,-162.6895)"
         id="path616" />
    </clipPath>
    <clipPath
       clipPathUnits="userSpaceOnUse"
       id="clipPath618">
      <path
         d="M 0,825 H 649 V 0 H 0 Z"
         transform="translate(-101.46681,-172.96)"
         id="path618" />
    </clipPath>
    <clipPath
       clipPathUnits="userSpaceOnUse"
       id="clipPath620">
      <path
         d="M 0,825 H 649 V 0 H 0 Z"
         transform="translate(-126.22461,-180.459)"
         id="path620" />
    </clipPath>
    <clipPath
       clipPathUnits="userSpaceOnUse"
       id="clipPath622">
      <path
         d="M 0,825 H 649 V 0 H 0 Z"
         transform="translate(-129.1113,-178.7725)"
         id="path622" />
    </clipPath>
    <clipPath
       clipPathUnits="userSpaceOnUse"
       id="clipPath624">
      <path
         d="M 0,825 H 649 V 0 H 0 Z"
         transform="translate(-131.6719,-179.3643)"
         id="path624" />
    </clipPath>
    <clipPath
       clipPathUnits="userSpaceOnUse"
       id="clipPath626">
      <path
         d="M 0,825 H 649 V 0 H 0 Z"
         transform="translate(-134.9238,-177.22461)"
         id="path626" />
    </clipPath>
    <clipPath
       clipPathUnits="userSpaceOnUse"
       id="clipPath628">
      <path
         d="M 0,825 H 649 V 0 H 0 Z"
         transform="translate(-136.64841,-177.21681)"
         id="path628" />
    </clipPath>
    <clipPath
       clipPathUnits="userSpaceOnUse"
       id="clipPath630">
      <path
         d="M 0,825 H 649 V 0 H 0 Z"
         transform="translate(-139.0879,-177.6348)"
         id="path630" />
    </clipPath>
    <clipPath
       clipPathUnits="userSpaceOnUse"
       id="clipPath632">
      <path
         d="M 0,825 H 649 V 0 H 0 Z"
         transform="translate(-119.86131,-180.05571)"
         id="path632" />
    </clipPath>
    <clipPath
       clipPathUnits="userSpaceOnUse"
       id="clipPath634">
      <path
         d="M 0,825 H 649 V 0 H 0 Z"
         transform="translate(-122.68551,-180.0732)"
         id="path634" />
    </clipPath>
    <clipPath
       clipPathUnits="userSpaceOnUse"
       id="clipPath636">
      <path
         d="M 0,825 H 649 V 0 H 0 Z"
         transform="translate(-102.7266,-176.7666)"
         id="path636" />
    </clipPath>
    <clipPath
       clipPathUnits="userSpaceOnUse"
       id="clipPath638">
      <path
         d="M 0,825 H 649 V 0 H 0 Z"
         transform="translate(-105.6211,-176.6152)"
         id="path638" />
    </clipPath>
    <clipPath
       clipPathUnits="userSpaceOnUse"
       id="clipPath640">
      <path
         d="M 0,825 H 649 V 0 H 0 Z"
         transform="translate(-107.16411,-177.2773)"
         id="path640" />
    </clipPath>
    <clipPath
       clipPathUnits="userSpaceOnUse"
       id="clipPath642">
      <path
         d="M 0,825 H 649 V 0 H 0 Z"
         transform="translate(-109.5547,-177.9805)"
         id="path642" />
    </clipPath>
    <clipPath
       clipPathUnits="userSpaceOnUse"
       id="clipPath644">
      <path
         d="M 0,825 H 649 V 0 H 0 Z"
         transform="translate(-112.8613,-178.73931)"
         id="path644" />
    </clipPath>
    <clipPath
       clipPathUnits="userSpaceOnUse"
       id="clipPath646">
      <path
         d="M 0,825 H 649 V 0 H 0 Z"
         transform="translate(-115.09371,-179.4844)"
         id="path646" />
    </clipPath>
    <clipPath
       clipPathUnits="userSpaceOnUse"
       id="clipPath648">
      <path
         d="M 0,825 H 649 V 0 H 0 Z"
         transform="translate(-116.56641,-180.5469)"
         id="path648" />
    </clipPath>
  </defs>
  <g
     inkscape:label="Layer 1"
     inkscape:groupmode="layer"
     id="layer1">
    <g
       id="g1"
       transform="translate(-105.12047,-108.43932)">
      <path
         id="path521"
         d="m 0,0 v 0.021 c 0,2.245 1.687,4.081 4.111,4.081 1.489,0 2.377,-0.497 3.11,-1.217 L 6.117,1.611 C 5.508,2.164 4.889,2.502 4.1,2.502 2.771,2.502 1.812,1.396 1.812,0.046 V 0.021 c 0,-1.35 0.936,-2.476 2.288,-2.476 0.9,0 1.455,0.359 2.072,0.923 L 7.277,-2.647 C 6.465,-3.516 5.564,-4.056 4.043,-4.056 1.725,-4.056 0,-2.265 0,0"
         style="fill:#bcbec0;fill-opacity:1;fill-rule:nonzero;stroke:none"
         transform="matrix(0.35277776,0,0,-0.35277776,147.61014,116.35164)"
         clip-path="url(#clipPath522)" />
      <path
         id="path523"
         d="M 0,0 -1.049,2.558 -2.098,0 Z m -1.826,4.642 h 1.599 L 3.154,-3.303 H 1.34 l -0.721,1.77 h -3.336 l -0.719,-1.77 h -1.771 z"
         style="fill:#bcbec0;fill-opacity:1;fill-rule:nonzero;stroke:none"
         transform="matrix(0.35277776,0,0,-0.35277776,152.34438,116.56973)"
         clip-path="url(#clipPath524)" />
      <path
         id="path525"
         d="M 0,0 H 1.918 L 3.979,-5.555 6.039,0 H 7.912 L 4.721,-7.944 H 3.189 Z"
         style="fill:#bcbec0;fill-opacity:1;fill-rule:nonzero;stroke:none"
         transform="matrix(0.35277776,0,0,-0.35277776,153.32969,114.95224)"
         clip-path="url(#clipPath526)" />
      <path
         id="path527"
         d="M 0,0 H 5.951 V -1.544 H 1.725 v -1.6 h 3.72 V -4.688 H 1.725 V -6.344 H 6.006 V -7.888 H 0 Z"
         style="fill:#bcbec0;fill-opacity:1;fill-rule:nonzero;stroke:none"
         transform="matrix(0.35277776,0,0,-0.35277776,156.62869,114.95224)"
         clip-path="url(#clipPath528)" />
      <path
         id="path529"
         d="M 0,0 H 1.6 L 5.295,-4.856 V 0 H 7.008 V -7.888 H 5.531 l -3.82,5.013 V -7.888 H 0 Z"
         style="fill:#bcbec0;fill-opacity:1;fill-rule:nonzero;stroke:none"
         transform="matrix(0.35277776,0,0,-0.35277776,159.37238,114.95224)"
         clip-path="url(#clipPath530)" />
      <path
         id="path531"
         d="M 0,0 C 1.418,0 2.379,0.957 2.379,2.354 V 2.375 C 2.379,3.773 1.418,4.754 0,4.754 H -1.342 V 0 Z M -3.076,6.32 H 0 c 2.479,0 4.191,-1.701 4.191,-3.921 V 2.375 C 4.191,0.157 2.479,-1.567 0,-1.567 h -3.076 z"
         style="fill:#bcbec0;fill-opacity:1;fill-rule:nonzero;stroke:none"
         transform="matrix(0.35277776,0,0,-0.35277776,163.67736,117.18191)"
         clip-path="url(#clipPath532)" />
      <path
         id="path533"
         d="m 237.297,165.58 h 1.736 v -7.888 h -1.736 z"
         style="fill:#bcbec0;fill-opacity:1;fill-rule:nonzero;stroke:none"
         transform="matrix(0.35277776,0,0,-0.35277776,82.094754,173.36522)"
         clip-path="url(#clipPath534)" />
      <path
         id="path535"
         d="M 0,0 1.023,1.228 C 1.734,0.643 2.479,0.271 3.379,0.271 c 0.711,0 1.139,0.281 1.139,0.744 v 0.021 c 0,0.441 -0.27,0.665 -1.59,1.002 C 1.342,2.445 0.314,2.885 0.314,4.452 v 0.022 c 0,1.43 1.149,2.378 2.76,2.378 1.149,0 2.131,-0.363 2.932,-1.005 L 5.104,4.541 C 4.404,5.025 3.717,5.319 3.051,5.319 2.389,5.319 2.039,5.014 2.039,4.63 V 4.608 C 2.039,4.09 2.377,3.921 3.74,3.572 5.34,3.154 6.24,2.58 6.24,1.205 V 1.184 C 6.24,-0.384 5.047,-1.263 3.346,-1.263 2.152,-1.263 0.945,-0.845 0,0"
         style="fill:#bcbec0;fill-opacity:1;fill-rule:nonzero;stroke:none"
         transform="matrix(0.35277776,0,0,-0.35277776,167.00466,117.32937)"
         clip-path="url(#clipPath536)" />
      <path
         id="path537"
         d="M 0,0 H 1.734 V -3.121 H 4.936 V 0 H 6.67 V -7.888 H 4.936 v 3.165 H 1.734 V -7.888 H 0 Z"
         style="fill:#bcbec0;fill-opacity:1;fill-rule:nonzero;stroke:none"
         transform="matrix(0.35277776,0,0,-0.35277776,169.81859,114.95224)"
         clip-path="url(#clipPath538)" />
      <path
         id="path539"
         d="M 0,0 V 4.506 H 1.732 V 0.045 c 0,-1.284 0.645,-1.95 1.702,-1.95 1.062,0 1.703,0.642 1.703,1.893 v 4.518 h 1.734 v -4.45 c 0,-2.388 -1.34,-3.561 -3.459,-3.561 C 1.295,-3.505 0,-2.321 0,0"
         style="fill:#bcbec0;fill-opacity:1;fill-rule:nonzero;stroke:none"
         transform="matrix(0.35277776,0,0,-0.35277776,147.59222,121.31223)"
         clip-path="url(#clipPath540)" />
      <path
         id="path541"
         d="M 0,0 H 1.602 L 5.297,-4.856 V 0 H 7.01 V -7.888 H 5.533 l -3.82,5.014 V -7.888 H 0 Z"
         style="fill:#bcbec0;fill-opacity:1;fill-rule:nonzero;stroke:none"
         transform="matrix(0.35277776,0,0,-0.35277776,150.64043,119.72268)"
         clip-path="url(#clipPath542)" />
      <path
         id="path543"
         d="m 203.285,152.058 h 1.734 v -7.888 h -1.734 z"
         style="fill:#bcbec0;fill-opacity:1;fill-rule:nonzero;stroke:none"
         transform="matrix(0.35277776,0,0,-0.35277776,82.094754,173.36522)"
         clip-path="url(#clipPath544)" />
      <path
         id="path545"
         d="M 0,0 H 1.914 L 3.977,-5.555 6.039,0 H 7.908 L 4.721,-7.943 H 3.189 Z"
         style="fill:#bcbec0;fill-opacity:1;fill-rule:nonzero;stroke:none"
         transform="matrix(0.35277776,0,0,-0.35277776,154.87859,119.72268)"
         clip-path="url(#clipPath546)" />
      <path
         id="path547"
         d="M 0,0 H 5.949 V -1.544 H 1.725 V -3.145 H 5.441 V -4.687 H 1.725 V -6.342 H 6.004 V -7.888 H 0 Z"
         style="fill:#bcbec0;fill-opacity:1;fill-rule:nonzero;stroke:none"
         transform="matrix(0.35277776,0,0,-0.35277776,158.0984,119.72268)"
         clip-path="url(#clipPath548)" />
      <path
         id="path549"
         d="m 0,0 c 0.846,0 1.33,0.451 1.33,1.116 v 0.023 c 0,0.744 -0.518,1.127 -1.363,1.127 H -1.756 V 0 Z m -3.492,3.831 h 3.605 c 1.004,0 1.78,-0.282 2.299,-0.8 C 2.852,2.592 3.088,1.972 3.088,1.229 V 1.206 c 0,-1.272 -0.688,-2.073 -1.69,-2.445 L 3.326,-4.057 H 1.295 l -1.69,2.525 h -1.361 v -2.525 h -1.736 z"
         style="fill:#bcbec0;fill-opacity:1;fill-rule:nonzero;stroke:none"
         transform="matrix(0.35277776,0,0,-0.35277776,161.99342,121.07417)"
         clip-path="url(#clipPath550)" />
      <path
         id="path551"
         d="M 0,0 1.025,1.229 C 1.734,0.642 2.479,0.271 3.381,0.271 4.092,0.271 4.52,0.553 4.52,1.015 V 1.036 C 4.52,1.477 4.248,1.7 2.93,2.039 1.342,2.445 0.316,2.884 0.316,4.45 v 0.024 c 0,1.43 1.149,2.377 2.76,2.377 1.151,0 2.129,-0.361 2.93,-1.003 L 5.105,4.541 C 4.406,5.024 3.719,5.319 3.053,5.319 2.391,5.319 2.039,5.014 2.039,4.631 V 4.607 C 2.039,4.09 2.379,3.921 3.74,3.57 5.342,3.154 6.244,2.58 6.244,1.205 V 1.183 C 6.244,-0.383 5.049,-1.262 3.348,-1.262 2.152,-1.262 0.947,-0.845 0,0"
         style="fill:#bcbec0;fill-opacity:1;fill-rule:nonzero;stroke:none"
         transform="matrix(0.35277776,0,0,-0.35277776,163.4445,122.09945)"
         clip-path="url(#clipPath552)" />
      <path
         id="path553"
         d="m 238.43,152.058 h 1.734 v -7.888 h -1.734 z"
         style="fill:#bcbec0;fill-opacity:1;fill-rule:nonzero;stroke:none"
         transform="matrix(0.35277776,0,0,-0.35277776,82.094754,173.36522)"
         clip-path="url(#clipPath554)" />
      <path
         id="path555"
         d="M 0,0 H -2.398 V 1.6 H 4.135 V 0 H 1.736 V -6.288 H 0 Z"
         style="fill:#bcbec0;fill-opacity:1;fill-rule:nonzero;stroke:none"
         transform="matrix(0.35277776,0,0,-0.35277776,168.1629,120.28698)"
         clip-path="url(#clipPath556)" />
      <path
         id="path557"
         d="m 0,0 -3.031,4.776 h 2.027 L 0.879,1.609 2.793,4.776 H 4.766 L 1.734,0.034 V -3.111 H 0 Z"
         style="fill:#bcbec0;fill-opacity:1;fill-rule:nonzero;stroke:none"
         transform="matrix(0.35277776,0,0,-0.35277776,170.87417,121.40769)"
         clip-path="url(#clipPath558)" />
      <path
         id="path559"
         d="m 0,0 v 4.586 h 0.891 v -4.53 c 0,-1.701 0.9,-2.66 2.41,-2.66 1.457,0 2.379,0.879 2.379,2.604 V 4.586 H 6.568 V 0.067 C 6.568,-2.229 5.252,-3.425 3.279,-3.425 1.328,-3.425 0,-2.229 0,0"
         style="fill:#bcbec0;fill-opacity:1;fill-rule:nonzero;stroke:none"
         transform="matrix(0.35277776,0,0,-0.35277776,147.68316,126.11057)"
         clip-path="url(#clipPath560)" />
      <path
         id="path561"
         d="m 0,0 v 0.023 c 0,2.164 1.59,4.08 3.955,4.08 1.33,0 2.15,-0.385 2.941,-1.049 L 6.322,2.378 C 5.713,2.906 5.037,3.28 3.92,3.28 2.176,3.28 0.926,1.803 0.926,0.045 V 0.023 c 0,-1.881 1.205,-3.279 3.119,-3.279 0.9,0 1.736,0.35 2.277,0.788 v 1.96 H 3.92 V 0.293 H 7.178 V -2.85 C 6.445,-3.505 5.342,-4.057 4.012,-4.057 1.533,-4.057 0,-2.252 0,0"
         style="fill:#bcbec0;fill-opacity:1;fill-rule:nonzero;stroke:none"
         transform="matrix(0.35277776,0,0,-0.35277776,151.9723,125.89181)"
         clip-path="url(#clipPath562)" />
      <path
         id="path563"
         d="M 0,0 -1.793,4.023 -3.596,0 Z m -2.197,5.059 h 0.834 L 2.23,-2.884 H 1.273 L 0.35,-0.8 h -4.293 l -0.936,-2.084 h -0.914 z"
         style="fill:#bcbec0;fill-opacity:1;fill-rule:nonzero;stroke:none"
         transform="matrix(0.35277776,0,0,-0.35277776,158.36848,126.25768)"
         clip-path="url(#clipPath564)" />
      <path
         id="path565"
         d="M 0,0 H 0.836 L 5.805,-6.321 V 0 H 6.672 V -7.887 H 5.963 L 0.869,-1.42 V -7.887 H 0 Z"
         style="fill:#bcbec0;fill-opacity:1;fill-rule:nonzero;stroke:none"
         transform="matrix(0.35277776,0,0,-0.35277776,161.05496,124.49277)"
         clip-path="url(#clipPath566)" />
      <path
         id="path567"
         d="M 0,0 C 1.994,0 3.268,1.353 3.268,3.099 V 3.121 C 3.268,4.868 1.994,6.243 0,6.243 H -1.848 V 0 Z M -2.738,7.064 H 0 c 2.479,0 4.191,-1.7 4.191,-3.92 V 3.121 C 4.191,0.901 2.479,-0.822 0,-0.822 h -2.738 z"
         style="fill:#bcbec0;fill-opacity:1;fill-rule:nonzero;stroke:none"
         transform="matrix(0.35277776,0,0,-0.35277776,166.51338,126.98493)"
         clip-path="url(#clipPath568)" />
      <path
         id="path569"
         d="M 0,0 -1.791,4.023 -3.592,0 Z m -2.195,5.059 h 0.834 L 2.232,-2.884 H 1.273 L 0.352,-0.8 h -4.293 l -0.936,-2.084 h -0.912 z"
         style="fill:#bcbec0;fill-opacity:1;fill-rule:nonzero;stroke:none"
         transform="matrix(0.35277776,0,0,-0.35277776,171.62866,126.25768)"
         clip-path="url(#clipPath570)" />
      <g
         mask="url(#mask570)"
         id="g585"
         clip-path="url(#clipPath586)"
         transform="matrix(0.26458333,0,0,0.26458333,82.094754,-117.67644)">
        <path
           d="m 104.104,169.258 c 0,0 -4.468,-24.851 17.753,-39.735 v 0 c 22.278,14.884 17.93,39.735 17.93,39.735 v 0 c -8.965,2.426 -13.447,3.638 -17.908,3.638 v 0 c -4.46,0 -8.898,-1.212 -17.775,-3.638"
           transform="matrix(1.3333333,0,0,-1.3333333,0,1100)"
           style="fill:url(#linearGradient585);stroke:none"
           id="path585" />
      </g>
      <path
         id="path587"
         d="M 0,0 C -22.221,14.885 -17.754,39.736 -17.754,39.736 0,44.586 0,44.586 17.93,39.736 17.93,39.736 22.277,14.885 0,0 m 20.922,41.668 -0.049,0.284 -0.281,0.075 C 10.324,44.759 5.17,46.13 0.014,46.13 c -5.157,0 -10.26,-1.371 -20.426,-4.103 l -0.279,-0.075 -0.051,-0.281 c -0.014,-0.072 -1.272,-7.175 0.625,-16.231 1.111,-5.32 3.076,-10.271 5.84,-14.715 3.453,-5.553 8.17,-10.321 14.015,-14.173 l 0.248,-0.165 0.25,0.165 c 5.862,3.85 10.598,8.62 14.077,14.173 2.783,4.442 4.771,9.393 5.908,14.713 1.937,9.055 0.715,16.16 0.701,16.23"
         style="fill:#d1d3d4;fill-opacity:1;fill-rule:evenodd;stroke:none"
         transform="matrix(0.35277776,0,0,-0.35277776,125.08334,127.67256)"
         clip-path="url(#clipPath588)" />
      <path
         id="path589"
         d="M 0,0 C -22.221,14.885 -17.754,39.736 -17.754,39.736 0,44.586 0,44.586 17.93,39.736 17.93,39.736 22.277,14.885 0,0 m 20.477,41.59 c -20.491,5.451 -20.491,5.451 -40.772,0 0,0 -5.107,-27.932 20.281,-44.66 25.459,16.728 20.491,44.66 20.491,44.66"
         style="fill:#bcbec0;fill-opacity:1;fill-rule:evenodd;stroke:none"
         transform="matrix(0.35277776,0,0,-0.35277776,125.08334,127.67256)"
         clip-path="url(#clipPath590)" />
      <path
         id="path591"
         d="m 0,0 c 15.914,4.398 15.914,4.398 31.984,0 0,0 3.899,-22.531 -16.07,-36.026 C -4.002,-22.531 0,0 0,0"
         style="fill:#d1d3d4;fill-opacity:1;fill-rule:evenodd;stroke:none"
         transform="matrix(0.35277776,0,0,-0.35277776,119.47198,114.24912)"
         clip-path="url(#clipPath592)" />
      <path
         id="path593"
         d="m 0,0 c 15.838,4.377 15.838,4.377 31.832,0 0,0 3.881,-22.426 -15.994,-35.856 C -3.984,-22.426 0,0 0,0"
         style="fill:#d1d3d4;fill-opacity:1;fill-rule:evenodd;stroke:none"
         transform="matrix(0.35277776,0,0,-0.35277776,119.49953,114.27632)"
         clip-path="url(#clipPath594)" />
      <path
         id="path595"
         d="m 0,0 v 39.232 c 0,0 4.32,0.504 15.994,-3.376 C 15.994,35.856 20.098,13.44 0,0"
         style="fill:#213769;fill-opacity:1;fill-rule:evenodd;stroke:none"
         transform="matrix(0.35277776,0,0,-0.35277776,125.08679,126.9257)"
         clip-path="url(#clipPath596)" />
      <path
         id="path597"
         d="m 0,0 c -1.02,0.074 -2.576,0.935 -3.4,1.429 0.033,0.045 0.068,0.091 0.107,0.133 0.807,0.89 1.213,2.149 1.398,2.893 C -1.301,3.646 -0.223,2.813 0.299,2.53 0.949,2.179 0.914,2.758 0.914,2.758 1.187,2.427 1.227,2.01 1.176,1.423 l 0.213,1.054 c 0,0 -0.635,1.054 0.281,2.073 0.785,0.878 1.613,0.3 1.613,0.3 C 2.301,4.796 2.301,3.987 2.301,3.987 3.619,4.815 3.988,3.321 3.988,3.321 3.33,3.533 2.908,3.06 2.582,2.671 3.799,3.235 4.26,2.564 4.174,2.109 3.723,2.341 3.328,1.762 3.182,1.282 2.951,0.686 1.686,-0.456 1.686,-0.456 1.414,-0.718 1.021,-0.754 0.562,-0.632 0.562,-0.632 1.439,-0.105 0,0"
         style="fill:#bcbec0;fill-opacity:1;fill-rule:nonzero;stroke:none"
         transform="matrix(0.35277776,0,0,-0.35277776,115.55767,121.87861)"
         clip-path="url(#clipPath598)" />
      <path
         id="path599"
         d="M 0,0 C 0.035,0.127 0.07,0.255 0.1,0.378 0.635,2.524 1.686,3.795 3.193,4.904 4.01,4.921 5.207,4.907 5.754,4.705 7.703,3.984 5.027,-1.568 5.027,-1.568 c 0,0 2.641,-0.09 2.604,-0.143 -0.033,-0.052 2.098,1.164 2.765,1.075 0.668,-0.087 1.875,-0.369 1.35,-1.634 0,0 0.158,0.791 -0.668,0.229 0,0 0.947,-0.492 0.457,-1.229 0,0 -0.387,0.753 -1.107,0.297 0,0 0.982,-0.297 0.437,-0.896 0,0 -0.595,0.703 -1.052,0.212 -0.456,-0.493 -0.387,-0.579 -1.055,-0.511 -0.666,0.071 -0.545,0.177 -0.719,0.369 0,0 -0.352,-0.386 -0.213,-0.738 0,0 -0.365,-0.174 -0.84,0.352 0,0 -1.127,0.211 -1.371,-0.175 -0.248,-0.388 -0.597,-0.44 -0.916,-0.493 0,0 0.155,0.264 0.117,0.499 -0.004,0.014 -0.005,0.031 -0.009,0.046 -0.073,0.246 -0.493,-0.545 -1.073,-0.229 -0.582,0.316 -0.703,0.615 -0.562,0.88 0.141,0.262 -0.895,-0.651 -0.229,-1.091 0,0 -1.248,0.492 -1.037,1.44 0.211,0.951 0.44,3.164 0.424,3.217 -0.019,0.052 0.613,0.156 0.684,0.808 0,0 -1.141,-1.108 -2.178,-0.861 L 1.135,0.134 C 1.135,0.134 0.531,-0.06 0,0"
         style="fill:#bcbec0;fill-opacity:1;fill-rule:nonzero;stroke:none"
         transform="matrix(0.35277776,0,0,-0.35277776,111.99059,124.72839)"
         clip-path="url(#clipPath600)" />
      <path
         id="path601"
         d="M 0,0 C 1.611,-1.507 5.512,-2.43 8.451,-0.353 L 7.607,-0.668 c 0,0 1.446,0.997 2.438,2.863 C 9.521,1.037 8.512,-1.561 9.031,-3.41 c 0.684,-2.441 0.44,-2.335 0.106,-3.073 0,0 0.068,1.212 -0.264,2.143 0,0 0.174,-2.637 -1.389,-3.707 -1.564,-1.071 0.633,-2.548 -0.211,-4.216 l -0.316,-0.703 0.686,0.422 c 0,0 -0.633,-0.826 -0.528,-1.318 0,0 0.158,0.351 0.492,0.316 0,0 -0.65,-0.914 0.123,-1.247 0.774,-0.334 2.547,-0.438 2.706,-0.457 0.158,-0.019 -0.721,0.561 0.035,0.967 0,0 -0.246,-1.056 0.386,-1.038 0.633,0.019 1.055,0.65 1.108,0 0,0 0.271,0.782 -0.244,1.054 0.281,-0.116 0.625,-0.379 0.472,-0.949 0,0 0.703,1.442 -1.213,1.477 l -0.632,0.369 c 0,0 -0.141,0.141 -0.614,-0.106 0,0 -0.195,0 -0.125,0.475 0.071,0.474 -0.021,3.47 -0.021,3.47 l 0.101,0.869 0.069,-0.68 c 0.449,0.495 1.685,1.828 2.451,2.297 0.951,0.579 2.584,3.145 3.287,5.972 0.701,2.83 2.25,4.322 4.428,5.711 2.178,1.387 1.476,2.81 2.494,3.935 1.019,1.125 1.305,3.045 1.305,3.045 0.041,0.436 0.558,1 1.381,1.168 0,0 2.38,0.479 3.894,2.001 1.016,1.026 2.486,2.009 2.486,2.009 0,0 0.543,-0.386 1.809,0.229 0.973,0.492 1.615,0.846 1.758,0.209 0,0 0.263,1.686 -1.371,1.177 0.414,0.26 1.449,0.615 1.529,-0.104 0,0 0.475,1.88 -1.723,1.441 0,0 0.52,0.627 1.442,0.022 0,0 0.369,1.33 -1.178,1.031 l 0.352,0.193 c 0,0 -0.827,0.457 -1.809,-0.193 0,0 -0.58,-0.017 -0.916,0.069 -0.332,0.089 -1.404,-1.721 -1.404,-1.721 0,0 -1.688,-1.116 -2.53,-1.606 -0.105,-0.063 -0.027,-0.407 -1.642,-0.572 -0.887,-0.202 -1.596,-0.657 -1.596,-0.657 -0.701,-0.081 -0.584,0.152 -1.101,0.253 -0.528,0.105 -0.375,0.511 -0.493,0.877 -0.267,0.851 -0.547,0.949 -0.193,1.754 0.521,0.051 1.234,0.119 1.662,0.071 0,0 1.172,0.093 1.357,0.92 0.188,0.828 -0.001,1.42 -0.001,1.42 0.027,-0.218 -1.055,-0.974 -1.645,-0.425 -0.988,0.92 1.088,1.301 1.473,1.238 0.381,-0.066 0.257,-0.509 0.257,-0.509 l 0.487,0.358 c 0,0 0.381,0.975 0.488,1.28 0.108,0.304 -0.023,0.539 -0.023,0.539 -1.461,0.534 -2.389,1.086 -3.862,2.083 0.241,0.99 -1.117,1.894 -1.117,1.894 0.447,-0.642 0.328,-0.905 0.328,-0.905 -0.164,0.573 -1.76,1.088 -1.76,1.088 -4.511,1.356 -6.974,-2.152 -6.974,-2.152 3.523,1.432 -0.59,-0.316 -2.178,-3.155 0.596,0.346 1.121,0.427 1.236,0.496 -3.273,-3.021 -0.863,-8.822 -0.867,-8.715 -0.015,0.508 0.451,1.181 0.451,1.181 0.309,-0.736 1.186,-1.865 1.725,-2.228 C 13.629,12.381 13.93,9.355 12.578,7.8 10.963,5.937 9.641,5.115 7.941,1.722 6.221,-1.709 0.221,-0.751 -0.703,3.128 -1.721,7.414 1.283,12.276 5.061,10.365 5.648,10.067 6.289,9.048 5.656,8.032 5.373,7.577 4.457,6.991 5.164,5.937 c 0,0 -0.246,0.809 0.705,0.917 0,0 1.09,-0.68 -0.142,-1.619 C 4.312,4.159 4.234,2.446 5.975,2.354 c 0,0 -1.479,0.42 -0.563,1.299 0.912,0.879 2.137,1.442 1.77,2.495 0,0 0.408,-0.104 0.478,-0.596 0.07,-0.492 0.074,-1.16 0.457,-1.301 0,0 -0.48,0.327 0.227,1.529 0.383,0.652 0.039,1.56 -0.629,1.349 -0.668,-0.211 -0.199,1.22 0.681,0.987 0,0 0.715,-0.107 0.846,-0.781 0,0 0.299,1.256 -0.773,1.766 -1.074,0.508 -1.543,-0.371 -1.28,0.351 0.264,0.721 -0.275,1.436 -0.908,1.453 0,0 0.69,-0.195 0.494,-0.712 C 6.658,9.877 6.602,9.348 6.631,9.205 6.518,9.416 6.369,10.075 5.709,10.646 4.926,11.325 3.033,11.815 1.242,10.984 -1.674,9.631 -3.564,3.157 0,0"
         style="fill:#bcbec0;fill-opacity:1;fill-rule:nonzero;stroke:none"
         transform="matrix(0.35277776,0,0,-0.35277776,106.25453,124.14066)"
         clip-path="url(#clipPath602)" />
      <path
         id="path603"
         d="M 0,0 C 1.021,0.074 2.578,0.932 3.4,1.429 3.367,1.474 3.334,1.52 3.293,1.562 2.488,2.452 2.08,3.711 1.895,4.455 1.301,3.646 0.225,2.813 -0.299,2.53 -0.947,2.178 -0.912,2.758 -0.912,2.758 -1.186,2.427 -1.229,2.01 -1.176,1.423 l -0.211,1.054 c 0,0 0.631,1.054 -0.283,2.073 -0.787,0.878 -1.615,0.3 -1.615,0.3 0.984,-0.054 0.984,-0.863 0.984,-0.863 -1.318,0.827 -1.687,-0.668 -1.687,-0.668 0.658,0.214 1.08,-0.26 1.406,-0.648 -1.215,0.563 -1.678,-0.107 -1.59,-0.562 0.451,0.232 0.846,-0.347 0.992,-0.827 0.229,-0.597 1.494,-1.738 1.494,-1.738 0.272,-0.262 0.665,-0.298 1.124,-0.178 0,0 -0.879,0.529 0.562,0.634"
         style="fill:#bcbec0;fill-opacity:1;fill-rule:nonzero;stroke:none"
         transform="matrix(0.35277776,0,0,-0.35277776,134.69311,121.87861)"
         clip-path="url(#clipPath604)" />
      <path
         id="path605"
         d="m 0,0 c -0.037,0.127 -0.07,0.255 -0.104,0.378 -0.533,2.146 -1.582,3.417 -3.089,4.526 -0.817,0.017 -2.016,0.003 -2.561,-0.199 -1.953,-0.721 0.725,-6.273 0.725,-6.273 0,0 -2.639,-0.09 -2.604,-0.143 0.035,-0.052 -2.097,1.164 -2.765,1.075 -0.668,-0.087 -1.875,-0.369 -1.348,-1.634 0,0 -0.158,0.791 0.668,0.229 0,0 -0.951,-0.492 -0.459,-1.229 0,0 0.387,0.753 1.107,0.297 0,0 -0.982,-0.297 -0.439,-0.896 0,0 0.598,0.703 1.055,0.212 0.457,-0.493 0.386,-0.579 1.054,-0.511 0.668,0.071 0.543,0.177 0.721,0.369 0,0 0.352,-0.386 0.211,-0.738 0,0 0.365,-0.174 0.842,0.352 0,0 1.125,0.211 1.371,-0.175 0.246,-0.388 0.599,-0.44 0.912,-0.493 0,0 -0.152,0.264 -0.113,0.499 0,0.014 0.005,0.031 0.009,0.046 0.071,0.246 0.493,-0.545 1.073,-0.229 0.578,0.316 0.701,0.615 0.56,0.88 -0.14,0.262 0.897,-0.651 0.231,-1.091 0,0 1.246,0.492 1.035,1.44 -0.211,0.951 -0.44,3.164 -0.422,3.217 0.017,0.052 -0.613,0.156 -0.684,0.808 0,0 1.141,-1.108 2.176,-0.861 l -0.297,0.278 c 0,0 0.602,-0.194 1.135,-0.134"
         style="fill:#bcbec0;fill-opacity:1;fill-rule:nonzero;stroke:none"
         transform="matrix(0.35277776,0,0,-0.35277776,138.26082,124.72839)"
         clip-path="url(#clipPath606)" />
      <path
         id="path607"
         d="m 0,0 c -1.791,0.831 -3.684,0.341 -4.467,-0.34 -0.658,-0.569 -0.81,-1.228 -0.922,-1.439 0.03,0.142 -0.027,0.672 -0.144,0.988 -0.196,0.516 0.494,0.712 0.494,0.712 -0.631,-0.018 -1.172,-0.733 -0.91,-1.453 0.265,-0.722 -0.203,0.157 -1.278,-0.353 C -8.301,-2.395 -8,-3.65 -8,-3.65 c 0.129,0.674 0.846,0.782 0.846,0.782 0.883,0.232 1.349,-1.198 0.681,-0.987 -0.668,0.209 -1.009,-0.699 -0.629,-1.351 0.707,-1.2 0.227,-1.527 0.227,-1.527 0.385,0.14 0.389,0.808 0.457,1.3 0.07,0.492 0.479,0.597 0.479,0.597 -0.368,-1.054 0.857,-1.616 1.769,-2.495 0.916,-0.879 -0.56,-1.3 -0.56,-1.3 1.74,0.093 1.662,1.806 0.246,2.882 -1.233,0.938 -0.141,1.618 -0.141,1.618 0.949,-0.107 0.703,-0.916 0.703,-0.916 0.705,1.054 -0.209,1.639 -0.492,2.095 -0.633,1.015 0.01,2.035 0.598,2.333 3.777,1.911 6.781,-2.951 5.761,-7.238 -0.922,-3.878 -6.924,-4.836 -8.644,-1.406 -1.701,3.394 -3.022,4.216 -4.639,6.078 -1.35,1.555 -1.049,4.581 -0.875,5.877 0.539,0.364 1.414,1.492 1.725,2.229 0,0 0.468,-0.673 0.451,-1.184 -0.004,-0.105 2.408,5.697 -0.867,8.717 0.115,-0.068 0.64,-0.149 1.234,-0.496 -1.586,2.84 -5.699,4.588 -2.176,3.155 0,0 -2.463,3.509 -6.974,2.153 0,0 -1.594,-0.515 -1.756,-1.088 0,0 -0.121,0.262 0.326,0.905 0,0 -1.359,-0.904 -1.119,-1.895 -1.473,-0.997 -2.401,-1.548 -3.863,-2.083 0,0 -0.129,-0.234 -0.022,-0.539 0.109,-0.304 0.488,-1.279 0.488,-1.279 l 0.487,-0.36 c 0,0 -0.121,0.445 0.259,0.511 0.383,0.063 2.459,-0.32 1.469,-1.239 -0.588,-0.549 -1.67,0.206 -1.64,0.426 0,0 -0.192,-0.594 -0.004,-1.42 0.185,-0.827 1.357,-0.921 1.357,-0.921 0.428,0.049 1.141,-0.019 1.662,-0.071 0.356,-0.805 0.076,-0.902 -0.193,-1.753 -0.115,-0.366 0.035,-0.773 -0.49,-0.877 -0.518,-0.102 -0.403,-0.334 -1.104,-0.254 0,0 -0.707,0.453 -1.594,0.657 -1.615,0.165 -1.537,0.51 -1.644,0.572 -0.844,0.491 -2.529,1.607 -2.529,1.607 0,0 -1.073,1.81 -1.405,1.721 -0.334,-0.086 -0.914,-0.07 -0.914,-0.07 -0.984,0.651 -1.81,0.194 -1.81,0.194 l 0.351,-0.194 c -1.543,0.299 -1.178,-1.031 -1.178,-1.031 0.922,0.606 1.442,-0.021 1.442,-0.021 -2.195,0.437 -1.723,-1.442 -1.723,-1.442 0.08,0.72 1.117,0.364 1.529,0.105 -1.634,0.509 -1.371,-1.177 -1.371,-1.177 0.143,0.637 0.788,0.281 1.758,-0.209 1.268,-0.615 1.809,-0.23 1.809,-0.23 0,0 1.471,-0.983 2.488,-2.008 1.512,-1.523 3.893,-2.001 3.893,-2.001 0.824,-0.168 1.341,-0.733 1.381,-1.168 0,0 0.287,-1.92 1.304,-3.045 1.02,-1.125 0.317,-2.549 2.494,-3.936 2.18,-1.388 3.727,-2.881 4.428,-5.711 0.703,-2.827 2.338,-5.392 3.287,-5.971 0.766,-0.469 2.004,-1.802 2.451,-2.297 l 0.069,0.68 0.101,-0.87 c 0,0 -0.092,-2.996 -0.021,-3.469 0.07,-0.475 -0.125,-0.475 -0.125,-0.475 -0.473,0.246 -0.613,0.106 -0.613,0.106 l -0.633,-0.37 c -1.916,-0.035 -1.211,-1.476 -1.211,-1.476 -0.156,0.569 0.189,0.833 0.47,0.949 -0.515,-0.272 -0.242,-1.055 -0.242,-1.055 0.051,0.651 0.473,0.02 1.106,0 0.633,-0.017 0.386,1.038 0.386,1.038 0.756,-0.406 -0.123,-0.985 0.036,-0.966 0.156,0.018 1.931,0.123 2.707,0.457 0.771,0.333 0.121,1.247 0.121,1.247 0.334,0.035 0.492,-0.317 0.492,-0.317 0.107,0.493 -0.527,1.319 -0.527,1.319 l 0.685,-0.422 -0.316,0.703 c -0.844,1.668 1.353,3.144 -0.211,4.216 -1.563,1.07 -1.387,3.707 -1.387,3.707 -0.334,-0.932 -0.264,-2.144 -0.264,-2.144 -0.336,0.738 -0.58,0.633 0.104,3.073 0.519,1.849 -0.49,4.448 -1.014,5.606 0.992,-1.866 2.438,-2.863 2.438,-2.863 l -0.842,0.315 c 2.937,-2.077 6.838,-1.154 8.449,0.353 C 4.811,-7.827 2.916,-1.354 0,0"
         style="fill:#bcbec0;fill-opacity:1;fill-rule:nonzero;stroke:none"
         transform="matrix(0.35277776,0,0,-0.35277776,143.55803,120.26561)"
         clip-path="url(#clipPath608)" />
      <path
         id="path609"
         d="m 0,0 h -23.299 c -0.422,-0.023 -0.609,-0.113 -0.609,-0.113 -1.029,-1.664 -2.805,-2.657 -4.75,-2.657 -1.945,0 -3.721,0.993 -4.75,2.657 0,0 -0.219,0.113 -0.57,0.113 L -56.6,0 c -0.531,0 -0.962,-0.457 -0.962,-1.023 0,-0.565 0.431,-1.022 0.962,-1.022 h 22.194 c 1.424,-1.691 3.498,-2.679 5.748,-2.679 2.25,0 4.324,0.988 5.748,2.679 H 0 c 0.547,0 0.99,0.457 0.99,1.022 C 0.99,-0.457 0.547,0 0,0"
         style="fill:#bcbec0;fill-opacity:1;fill-rule:nonzero;stroke:none"
         transform="matrix(0.35277776,0,0,-0.35277776,134.8998,131.46838)"
         clip-path="url(#clipPath610)" />
      <path
         id="path611"
         d="m 0,0 c 1.828,-0.846 4.137,-0.589 6.859,0.761 7.02,3.483 12.309,5.393 16.446,-1.795 0,0 1.381,-1.787 3.166,0 4.136,7.188 9.427,5.278 16.447,1.795 2.721,-1.35 5.029,-1.607 6.859,-0.761 2.127,0.98 2.76,3.077 2.832,3.355 0.059,0.125 0.096,0.262 0.096,0.411 0,0.55 -0.445,0.996 -0.996,0.996 -0.51,0 -0.912,-0.387 -0.973,-0.879 L 50.732,3.885 C 50.729,3.87 50.32,2.389 48.939,1.765 47.674,1.191 45.939,1.443 43.785,2.512 36.652,6.05 29.844,8.518 24.891,0.126 L 24.887,0.128 24.885,0.126 C 19.932,8.518 13.121,6.05 5.99,2.512 3.836,1.443 2.102,1.191 0.836,1.765 -0.545,2.389 -0.951,3.87 -0.955,3.885 L -0.961,3.883 C -1.02,4.375 -1.424,4.762 -1.934,4.762 -2.482,4.762 -2.93,4.316 -2.93,3.766 -2.93,3.617 -2.893,3.48 -2.836,3.355 -2.76,3.077 -2.127,0.98 0,0"
         style="fill:#bcbec0;fill-opacity:1;fill-rule:nonzero;stroke:none"
         transform="matrix(0.35277776,0,0,-0.35277776,116.11026,130.86309)"
         clip-path="url(#clipPath612)" />
      <path
         id="path613"
         d="m 0,0 c -0.416,0.11 -0.812,0.176 -1.229,0.176 -2.873,0 -4.121,-2.61 -4.121,-5.153 0,-2.456 1.248,-5.482 4.1,-5.482 0.416,0 0.834,0.109 1.25,0.241 v -3.092 c -0.482,-0.197 -0.986,-0.285 -1.514,-0.285 -4.715,0 -7.322,4.254 -7.322,8.596 0,4.101 2.719,8.311 7.17,8.311 0.568,0 1.117,-0.111 1.666,-0.308 z"
         style="fill:#213769;fill-opacity:1;fill-rule:nonzero;stroke:none"
         transform="matrix(0.35277776,0,0,-0.35277776,123.58128,117.07064)"
         clip-path="url(#clipPath614)" />
      <path
         id="path615"
         d="m 0,0 v -10.7 c 0,-1.25 -0.152,-3.136 1.623,-3.136 1.602,0 1.602,1.206 1.623,2.434 V 0 h 3.268 v -12.061 c 0,-1.753 -0.2,-4.735 -4.912,-4.735 -3.049,0 -4.87,1.425 -4.87,4.517 V 0 Z"
         style="fill:#d1d3d4;fill-opacity:1;fill-rule:nonzero;stroke:none"
         transform="matrix(0.35277776,0,0,-0.35277776,127.14765,115.97198)"
         clip-path="url(#clipPath616)" />
      <path
         id="path617"
         d="M 0,0 C 10.174,2.733 15.277,4.105 20.437,4.105 25.596,4.105 30.754,2.733 41.025,0 l 0.223,-0.059 c -0.109,2.046 -0.371,6.185 -0.371,6.185 0,0 -15.387,4.093 -20.438,4.093 -5.054,0 -20.287,-4.093 -20.287,-4.093 0,0 -0.269,-4.139 -0.388,-6.19 z"
         style="fill:#bcbec0;fill-opacity:1;fill-rule:evenodd;stroke:none"
         transform="matrix(0.35277776,0,0,-0.35277776,117.88999,112.34878)"
         clip-path="url(#clipPath618)" />
      <path
         id="path619"
         d="m 0,0 0.568,-0.084 0.45,-0.854 0.48,0.718 0.57,-0.086 -0.043,-2.027 -0.537,0.08 0.026,1.163 -0.516,-0.72 H 0.986 L 0.51,-0.947 0.484,-2.105 -0.045,-2.029 Z"
         style="fill:#213769;fill-opacity:1;fill-rule:nonzero;stroke:none"
         transform="matrix(0.35277776,0,0,-0.35277776,126.62399,109.7033)"
         clip-path="url(#clipPath620)" />
      <path
         id="path621"
         d="M 0,0 0.006,1.126 0.52,1.004 0.514,-0.11 C 0.512,-0.4 0.645,-0.569 0.85,-0.619 1.053,-0.668 1.186,-0.566 1.189,-0.285 L 1.193,0.843 1.709,0.719 1.703,-0.393 C 1.697,-1.039 1.359,-1.243 0.842,-1.119 0.322,-0.995 -0.002,-0.626 0,0"
         style="fill:#213769;fill-opacity:1;fill-rule:nonzero;stroke:none"
         transform="matrix(0.35277776,0,0,-0.35277776,127.64235,110.29826)"
         clip-path="url(#clipPath622)" />
      <path
         id="path623"
         d="M 0,0 0.436,-0.085 1.17,-1.267 1.129,-0.222 1.59,-0.311 1.666,-2.291 1.26,-2.211 0.496,-0.984 0.541,-2.069 0.078,-1.979 Z"
         style="fill:#213769;fill-opacity:1;fill-rule:nonzero;stroke:none"
         transform="matrix(0.35277776,0,0,-0.35277776,128.54567,110.08948)"
         clip-path="url(#clipPath624)" />
      <path
         id="path625"
         d="M 0,0 C 0.271,-0.06 0.453,0.082 0.455,0.399 V 0.405 C 0.455,0.72 0.273,0.942 0,1.002 L -0.184,1.042 -0.187,0.04 Z M -0.639,1.624 -0.006,1.487 C 0.584,1.359 0.924,0.88 0.922,0.312 V 0.307 c 0,-0.569 -0.348,-0.916 -0.94,-0.788 l -0.625,0.136 z"
         style="fill:#213769;fill-opacity:1;fill-rule:nonzero;stroke:none"
         transform="matrix(0.35277776,0,0,-0.35277776,129.69287,110.84432)"
         clip-path="url(#clipPath626)" />
      <path
         id="path627"
         d="M 0,0 -0.051,1.113 0.412,1.002 0.459,-0.102 c 0.014,-0.286 0.139,-0.451 0.322,-0.495 0.184,-0.044 0.295,0.058 0.285,0.335 L 1.018,0.855 1.48,0.745 1.527,-0.356 C 1.555,-0.997 1.264,-1.204 0.797,-1.091 0.33,-0.979 0.023,-0.622 0,0"
         style="fill:#213769;fill-opacity:1;fill-rule:nonzero;stroke:none"
         transform="matrix(0.35277776,0,0,-0.35277776,130.30127,110.84707)"
         clip-path="url(#clipPath628)" />
      <path
         id="path629"
         d="m 0,0 0.49,-0.093 0.438,-0.832 0.361,0.681 0.492,-0.095 0.098,-1.952 -0.461,0.088 -0.057,1.122 -0.388,-0.685 -0.01,0.002 -0.465,0.84 0.055,-1.115 -0.455,0.086 z"
         style="fill:#213769;fill-opacity:1;fill-rule:nonzero;stroke:none"
         transform="matrix(0.35277776,0,0,-0.35277776,131.16187,110.69961)"
         clip-path="url(#clipPath630)" />
      <path
         id="path631"
         d="M 0,0 V 0.006 C -0.012,0.605 0.439,1.084 1.062,1.097 1.482,1.104 1.756,0.934 1.943,0.686 L 1.52,0.346 C 1.4,0.49 1.264,0.58 1.066,0.577 0.779,0.57 0.582,0.322 0.588,0.023 V 0.018 c 0.006,-0.308 0.213,-0.544 0.502,-0.539 0.213,0.005 0.338,0.107 0.457,0.258 L 1.982,-0.559 C 1.795,-0.829 1.537,-1.032 1.082,-1.041 0.496,-1.053 0.014,-0.612 0,0"
         style="fill:#213769;fill-opacity:1;fill-rule:nonzero;stroke:none"
         transform="matrix(0.35277776,0,0,-0.35277776,124.37916,109.84557)"
         clip-path="url(#clipPath632)" />
      <path
         id="path633"
         d="M 0,0 V 0.006 C 0.031,0.601 0.514,1.046 1.133,1.014 1.551,0.991 1.811,0.803 1.979,0.543 L 1.535,0.235 C 1.426,0.387 1.295,0.486 1.1,0.497 0.814,0.512 0.6,0.278 0.586,-0.019 L 0.584,-0.024 c -0.016,-0.308 0.174,-0.558 0.461,-0.571 0.213,-0.011 0.344,0.082 0.473,0.224 L 1.93,-0.695 C 1.723,-0.951 1.453,-1.135 1,-1.111 0.416,-1.081 -0.031,-0.609 0,0"
         style="fill:#213769;fill-opacity:1;fill-rule:nonzero;stroke:none"
         transform="matrix(0.35277776,0,0,-0.35277776,125.37547,109.8394)"
         clip-path="url(#clipPath634)" />
      <path
         id="path635"
         d="M 0,0 1.387,0.559 1.377,0.162 0.465,-0.205 0.457,-0.458 l 0.828,0.331 -0.008,-0.367 -0.83,-0.33 -0.006,-0.267 0.928,0.372 -0.008,-0.395 -1.4,-0.563 z"
         style="fill:#213769;fill-opacity:1;fill-rule:nonzero;stroke:none"
         transform="matrix(0.35277776,0,0,-0.35277776,118.33442,111.0059)"
         clip-path="url(#clipPath636)" />
      <path
         id="path637"
         d="M 0,0 C 0.289,0.103 0.486,0.323 0.498,0.598 L 0.5,0.602 C 0.514,0.871 0.33,0.96 0.041,0.857 L -0.152,0.788 -0.193,-0.07 Z M -0.613,1.03 0.055,1.27 C 0.674,1.489 1.016,1.271 0.992,0.784 V 0.779 C 0.969,0.292 0.588,-0.198 -0.037,-0.422 l -0.656,-0.232 z"
         style="fill:#213769;fill-opacity:1;fill-rule:nonzero;stroke:none"
         transform="matrix(0.35277776,0,0,-0.35277776,119.35553,111.05931)"
         clip-path="url(#clipPath638)" />
      <path
         id="path639"
         d="M 0,0 0.008,0.958 0.48,1.115 0.475,0.166 C 0.473,-0.079 0.596,-0.156 0.781,-0.093 0.971,-0.032 1.096,0.12 1.098,0.36 L 1.102,1.32 1.576,1.476 1.57,0.532 C 1.566,-0.02 1.256,-0.364 0.773,-0.522 0.295,-0.68 -0.004,-0.534 0,0"
         style="fill:#213769;fill-opacity:1;fill-rule:nonzero;stroke:none"
         transform="matrix(0.35277776,0,0,-0.35277776,119.89987,110.82573)"
         clip-path="url(#clipPath640)" />
      <path
         id="path641"
         d="M 0,0 V 0.005 C 0.029,0.511 0.428,1.02 0.934,1.17 1.279,1.274 1.49,1.19 1.627,1.022 L 1.262,0.639 C 1.172,0.733 1.066,0.778 0.906,0.731 0.672,0.662 0.494,0.407 0.48,0.153 V 0.149 c -0.013,-0.259 0.139,-0.414 0.374,-0.342 0.175,0.05 0.283,0.166 0.39,0.324 L 1.578,-0.022 C 1.408,-0.295 1.186,-0.523 0.814,-0.636 0.334,-0.779 -0.029,-0.517 0,0"
         style="fill:#213769;fill-opacity:1;fill-rule:nonzero;stroke:none"
         transform="matrix(0.35277776,0,0,-0.35277776,120.74322,110.57766)"
         clip-path="url(#clipPath642)" />
      <path
         id="path643"
         d="M 0,0 -0.158,0.45 -0.375,-0.092 Z M -0.346,0.967 0.102,1.077 0.709,-0.5 0.215,-0.622 0.113,-0.341 -0.529,-0.501 -0.668,-0.84 -1.154,-0.959 Z"
         style="fill:#213769;fill-opacity:1;fill-rule:nonzero;stroke:none"
         transform="matrix(0.35277776,0,0,-0.35277776,121.90971,110.30997)"
         clip-path="url(#clipPath644)" />
      <path
         id="path645"
         d="M 0,0 C 0.148,0.03 0.244,0.131 0.26,0.265 V 0.271 C 0.277,0.416 0.193,0.472 0.047,0.443 L -0.24,0.388 -0.289,-0.057 Z M -0.627,0.745 0.119,0.891 C 0.361,0.937 0.521,0.897 0.611,0.791 0.693,0.704 0.725,0.57 0.703,0.387 V 0.382 C 0.67,0.101 0.521,-0.112 0.312,-0.248 l 0.305,-0.571 -0.506,-0.099 -0.254,0.499 -0.193,-0.038 -0.062,-0.56 -0.44,-0.086 z"
         style="fill:#213769;fill-opacity:1;fill-rule:nonzero;stroke:none"
         transform="matrix(0.35277776,0,0,-0.35277776,122.69725,110.04712)"
         clip-path="url(#clipPath646)" />
      <path
         id="path647"
         d="M 0,0 1.303,0.163 1.275,-0.258 0.416,-0.366 0.4,-0.636 1.176,-0.54 1.15,-0.929 0.375,-1.026 0.357,-1.309 1.225,-1.202 1.197,-1.621 -0.115,-1.786 Z"
         style="fill:#213769;fill-opacity:1;fill-rule:nonzero;stroke:none"
         transform="matrix(0.35277776,0,0,-0.35277776,123.21679,109.67229)"
         clip-path="url(#clipPath648)" />
    </g>
  </g>
</svg>
